<svg width="1917" height="564" viewBox="0 0 1917 564" fill="none" xmlns="http://www.w3.org/2000/svg">
<path d="M1 563.188C1.5 551.021 7 523.188 19.5 502.188C36 476.188 53.5 454.188 86 430.188C119.5 406.688 191.778 360.521 205 351.188C222 339.188 260 301.188 282 263.688C302.375 228.959 335.033 185.72 352 168.188C367 152.688 404.279 118.161 447.5 98.6879C493 78.1879 536 60.1879 612.5 44.6879C673.341 32.3607 752 21.6879 783.5 16.6879C822.167 11.5212 905 3.18787 931 2.18791C962.493 0.976707 1044.5 -3.31213 1118.5 17.6879C1192.5 38.6879 1258.96 78.0924 1281 90.6879C1305.5 104.688 1381 130.188 1403 134.188C1425 138.188 1518.5 159.188 1559 181.188C1599.5 203.188 1611.5 208.188 1643.5 246.688C1675.5 285.188 1703.5 336.188 1713.5 349.688C1723.5 363.188 1822.5 486.688 1916.5 561.188" stroke="white"/>
</svg>
