<svg width="120" height="47" viewBox="0 0 120 47" fill="none" xmlns="http://www.w3.org/2000/svg">
<g clip-path="url(#clip0_2_25)">
<mask id="mask0_2_25" style="mask-type:luminance" maskUnits="userSpaceOnUse" x="0" y="0" width="120" height="47">
<path d="M120 0H0V47H120V0Z" fill="white"/>
</mask>
<g mask="url(#mask0_2_25)">
<path d="M49.0362 -2.11643e-06C43.1663 -0.0418526 37.4561 1.84743 32.8432 5.35765C30.4559 7.36101 28.5305 9.82701 27.1918 12.5959C25.8531 15.3647 25.131 18.3746 25.0722 21.4306C24.2549 36.1641 32.4692 42.5799 36.0153 44.6426C38.2546 46.0051 40.8241 46.7763 43.4677 46.8795C44.4718 46.9174 45.4678 46.6905 46.3489 46.2231L46.6259 46.0624V43.3032L45.8641 43.5175L45.1299 43.705C41.847 44.5891 40.4756 44.9641 37.2897 43.3434C29.8096 39.5529 26.9284 28.3956 27.9396 19.6224C29.0754 19.542 31.0978 19.6224 33.231 19.6224C38.4809 19.7028 41.7223 19.7162 42.5534 19.0866L43.9386 18.0553L28.3136 17.9883C29.5879 9.95184 34.7824 4.04502 42.3179 2.21003H42.3872C43.8694 1.84839 47.3462 1.00456 48.6345 1.8216C48.7431 1.89191 48.8359 1.98273 48.9073 2.08861C48.9788 2.19449 49.0273 2.31325 49.05 2.43773V24.5782C49.05 25.3283 49.05 26.4534 49.05 27.8866C49.1331 33.0969 49.3271 43.9595 48.4682 45.8213L48.1219 46.6116H49.0085C53.4827 46.6919 58.5802 44.0667 62.9851 39.4055C67.3647 34.8288 70.2048 29.0748 71.1301 22.904C72.0859 15.2291 70.7838 9.42947 67.2516 5.63893C63.7193 1.84839 57.6937 -0.107155 49.0362 -2.11643e-06ZM51.8066 44.4149C51.8066 41.4682 51.8066 38.334 51.8066 35.039C51.8066 23.8549 51.6681 11.1975 51.8066 1.55372C56.0314 1.20547 62.0709 3.34853 64.7305 6.21487C67.9442 9.68395 69.3571 14.9746 68.7199 21.1225C68.1091 26.8543 65.9656 32.3336 62.5003 37.0214C60.6442 39.4591 55.6436 43.7988 51.7789 44.4149" fill="white"/>
<path d="M22.1632 19.4751C22.1632 19.1 22.1632 18.8723 22.1632 18.8187C22.1632 17.9883 22.1632 16.823 22.1632 15.4702C22.0663 10.9564 21.9139 3.4155 22.6203 1.29922L22.8558 0.522363L18.4647 0.616122L19.1019 1.50013C19.7668 2.41094 19.656 6.26845 19.5867 8.34453C19.5867 8.57224 19.5867 8.78654 19.5867 8.98745C18.6429 8.4847 17.744 7.90675 16.8995 7.25961C12.23 3.63506 6.62668 1.31038 0.692601 0.535757L0 0.428604V2.21002H0.872677C2.61803 2.67882 3.53226 2.97349 3.53226 4.82188V43.397C3.58066 44.0935 3.49614 44.7927 3.28293 45.4597C3.28293 45.6472 3.17211 45.8615 3.10285 46.1294L2.90892 46.8794L6.78749 46.8125L6.57971 46.0892C5.8317 43.5979 5.97022 34.1148 6.06718 27.833C6.06718 25.998 6.06718 24.4041 6.06718 23.2656C6.06718 22.1271 6.06718 20.8547 6.06718 19.3143C6.06718 14.1576 5.99792 7.16585 6.19185 3.6432C8.65751 3.44228 13.852 6.99173 16.9687 9.16158C18.0076 9.88486 18.8803 10.501 19.5036 10.8492V33.4987C19.5036 34.4363 19.5036 35.5078 19.5729 36.6329C19.6837 39.9547 19.8222 43.7184 19.0604 46.0088L18.811 46.7589H22.842L22.5649 45.9954C22.3294 45.3659 21.8308 41.5084 22.1355 19.4751" fill="white"/>
<path d="M115.609 46.9866H120L119.529 46.1428C118.407 44.0935 116.426 36.7669 114.847 30.9538C114.058 28.0473 113.365 25.5292 112.88 23.9889L106.231 0.656304H103.461L103.613 1.3528C103.877 2.62033 104.214 3.87244 104.624 5.10315C105.095 6.56311 105.095 6.56312 104.084 9.77771C103.862 10.5144 103.585 11.4252 103.239 12.5369C102.851 13.8763 102.214 16.0328 101.411 18.792C98.751 27.9937 94.1937 43.4238 92.9055 46.1696V46.3303L92.5315 45.8615C92.0245 45.3269 91.4681 44.8382 90.8692 44.4015C89.7208 43.5254 88.6462 42.5625 87.6556 41.5218C83.1121 36.4588 81.0897 31.9048 81.7269 27.6455C82.2394 23.9219 84.4973 20.868 86.8244 17.9347C89.1516 15.0014 90.8969 12.5771 91.2155 9.75092C91.4076 8.67169 91.3427 7.56434 91.0259 6.51298C90.7091 5.46163 90.1486 4.49392 89.3871 3.68338C85.5778 -0.107161 77.1419 0.441998 73.0832 0.70988L71.6011 0.803639L72.7508 1.72783C73.2218 2.10287 73.2079 2.97349 73.1941 3.97805V4.554C73.1941 6.42917 73.1941 9.20176 73.1941 12.4297C73.2633 23.8951 73.388 41.2137 72.8339 46.2499V46.8928H76.3108L76.1999 46.2231C75.4242 41.8834 75.5766 34.7176 75.7151 28.4089C75.7151 26.2123 75.7982 24.1496 75.7982 22.3682V2.07608H78.9703C82.0178 2.07608 85.8964 3.02706 87.6833 5.66571C88.9576 7.55428 88.9161 9.97862 87.5863 12.8851C86.9536 14.0706 86.2216 15.2039 85.3977 16.2739C81.7546 21.3636 76.2415 29.0653 83.6523 40.7985C85.6055 43.8792 88.3066 47.3482 91.9635 46.8794L92.5453 46.7991L92.4068 47.0804H96.9641V46.4508C96.7148 44.0533 99.1666 34.5702 100.178 31.5298L112.201 31.4092C113.587 35.4275 115.955 43.6515 115.789 46.4508L115.609 46.9866ZM100.483 29.9225C100.926 27.458 102.907 20.0242 104.25 14.9344C104.763 13.0191 105.206 11.3716 105.455 10.367L105.774 9.13479C106.342 10.943 107.367 14.4924 108.655 19.033C110.04 24.1898 111.19 28.4089 111.523 29.8957L100.483 29.9225Z" fill="white"/>
</g>
</g>
<defs>
<clipPath id="clip0_2_25">
<rect width="120" height="47" fill="white"/>
</clipPath>
</defs>
</svg>
